<?xml version="1.0" standalone="no"?>
<!DOCTYPE svg PUBLIC "-//W3C//DTD SVG 20010904//EN"
 "http://www.w3.org/TR/2001/REC-SVG-20010904/DTD/svg10.dtd">
<svg version="1.0" xmlns="http://www.w3.org/2000/svg"
 width="238.000000pt" height="238.000000pt" viewBox="0 0 238.000000 238.000000"
 preserveAspectRatio="xMidYMid meet">
<metadata>
Created by potrace 1.14, written by Peter Selinger 2001-2017
</metadata>
<g transform="translate(0.000000,238.000000) scale(0.100000,-0.100000)"
fill="#000000" stroke="none">
<path d="M1299 2353 c-16 -18 -124 -113 -164 -145 -21 -16 -21 -24 -21 -207
l1 -191 27 -25 c15 -14 30 -25 34 -25 3 0 21 -15 38 -32 27 -27 31 -38 25 -60
-4 -15 -4 -29 -2 -32 3 -3 5 -36 4 -73 -1 -38 -2 -75 -2 -83 1 -8 1 -44 0 -80
0 -36 0 -72 0 -80 1 -8 1 -44 0 -80 0 -36 0 -72 1 -80 2 -70 1 -111 -5 -120
-3 -5 -2 -10 3 -10 8 0 8 -26 1 -67 -1 -4 -1 -23 0 -40 1 -32 2 -33 46 -33
l44 0 3 230 c2 127 -1 230 -5 230 -5 0 -5 5 -2 10 5 7 9 825 5 995 0 20 -12
19 -31 -2z"/>
<path d="M969 1819 c-23 -22 -68 -62 -98 -89 l-56 -50 -1 -395 c0 -322 2 -395
13 -396 17 -1 89 -1 153 0 l50 1 0 485 c0 271 -4 485 -9 485 -5 0 -28 -18 -52
-41z"/>
<path d="M1415 1273 c0 -203 3 -372 7 -378 3 -6 47 -9 107 -7 l101 3 0 293 0
292 -47 36 c-27 20 -57 45 -68 55 -42 38 -87 73 -94 73 -4 0 -7 -165 -6 -367z"/>
<path d="M825 838 c-10 -6 0 -32 40 -108 29 -54 50 -102 47 -105 -3 -3 0 -5 6
-5 7 0 12 -6 12 -12 0 -7 14 -39 30 -70 17 -32 27 -58 23 -58 -4 0 -3 -4 3 -8
10 -7 64 -114 65 -129 0 -5 7 -15 14 -23 7 -8 17 -28 20 -43 5 -20 12 -26 24
-22 32 10 106 21 126 18 11 -2 45 -4 75 -5 49 -3 55 -1 52 15 -2 11 4 27 13
37 9 10 14 24 10 29 -3 6 -2 11 4 11 6 0 13 11 17 25 3 14 10 25 15 25 5 0 8
3 7 7 -1 5 10 34 25 66 15 32 27 62 27 66 0 5 3 11 8 13 4 2 25 41 47 88 22
47 43 87 48 88 4 2 5 8 1 13 -3 5 0 9 6 9 6 0 9 4 6 9 -3 5 3 19 13 32 13 17
15 26 7 34 -13 12 -769 15 -791 3z"/>
<path d="M1113 226 c-3 -4 0 -12 7 -16 6 -4 12 -11 12 -16 0 -5 21 -51 46
-103 l45 -94 27 54 c15 30 28 56 28 59 0 3 12 28 26 56 14 29 26 56 26 61 0
11 -210 11 -217 -1z"/>
</g>
</svg>
